<?xml version="1.0" encoding="UTF-8" standalone="no"?>
<svg
   xmlns:dc="http://purl.org/dc/elements/1.1/"
   xmlns:cc="http://creativecommons.org/ns#"
   xmlns:rdf="http://www.w3.org/1999/02/22-rdf-syntax-ns#"
   xmlns:svg="http://www.w3.org/2000/svg"
   xmlns="http://www.w3.org/2000/svg"
   xmlns:sodipodi="http://sodipodi.sourceforge.net/DTD/sodipodi-0.dtd"
   xmlns:inkscape="http://www.inkscape.org/namespaces/inkscape"
   version="1.1"
   id="Layer_1"
   x="0px"
   y="0px"
   viewBox="0.8 -1.6 12.335438 16.648"
   enable-background="new 0 0 16 16"
   xml:space="preserve"
   height="77.074074"
   width="77.096489"
   inkscape:version="0.91 r13725"
   sodipodi:docname="blog-entry.svg"
   inkscape:export-filename="/Users/michael.steffen/Projects/steffen-adventures/sprites/png/blog-entry@2x.png"
   inkscape:export-xdpi="58.91935"
   inkscape:export-ydpi="58.91935"><metadata
     id="metadata23"><rdf:RDF><cc:Work
         rdf:about=""><dc:format>image/svg+xml</dc:format><dc:type
           rdf:resource="http://purl.org/dc/dcmitype/StillImage" /><dc:title></dc:title></cc:Work></rdf:RDF></metadata><defs
     id="defs21"><filter
       style="color-interpolation-filters:sRGB;"
       inkscape:label="Feather"
       id="filter4491"><feGaussianBlur
         stdDeviation="0.51"
         result="blur"
         id="feGaussianBlur4493" /><feComposite
         in="SourceGraphic"
         in2="blur"
         operator="atop"
         result="composite1"
         id="feComposite4495" /><feComposite
         in2="composite1"
         operator="in"
         result="composite2"
         id="feComposite4497" /><feComposite
         in2="composite2"
         operator="in"
         result="composite3"
         id="feComposite4499" /></filter><filter
       inkscape:collect="always"
       style="color-interpolation-filters:sRGB"
       id="filter4561"
       x="-0.035994558"
       width="1.0719891"
       y="-0.036005444"
       height="1.0720109"><feGaussianBlur
         inkscape:collect="always"
         stdDeviation="0.24003629"
         id="feGaussianBlur4563" /></filter></defs><sodipodi:namedview
     pagecolor="#7f7f7f"
     bordercolor="#666666"
     borderopacity="1"
     objecttolerance="10"
     gridtolerance="10"
     guidetolerance="10"
     inkscape:pageopacity="0"
     inkscape:pageshadow="2"
     inkscape:window-width="1199"
     inkscape:window-height="734"
     id="namedview19"
     showgrid="false"
     inkscape:snap-bbox="false"
     inkscape:snap-nodes="true"
     inkscape:snap-page="true"
     fit-margin-top="0"
     fit-margin-left="0"
     fit-margin-right="0"
     fit-margin-bottom="0"
     showborder="true"
     borderlayer="false"
     inkscape:showpageshadow="false"
     inkscape:zoom="4.2699285"
     inkscape:cx="9.6684753"
     inkscape:cy="51.571126"
     inkscape:window-x="0"
     inkscape:window-y="0"
     inkscape:window-maximized="0"
     inkscape:current-layer="Layer_1" /><path
     sodipodi:nodetypes="csssssscc"
     style="fill:#000000;fill-opacity:1;stroke:#000000;stroke-width:0;stroke-miterlimit:4;stroke-dasharray:none;stroke-opacity:1;filter:url(#filter4561);opacity:0.5"
     inkscape:connector-curvature="0"
     id="path4299"
     d="m 14.994618,12.510104 c -0.126879,1.695259 -1.3,3 -3,3 l -10.0000011,0 c -1.69999998,0 -3,-1.3 -3,-3 l 0,-9.9999997 c 0,-1.69999998 1.30000002,-3.00000008 3,-3.00000008 l 10.0000011,0 c 1.7,0 3,1.3000001 3,3.00000008 -0.02233,3.7207532 0.01817,6.5003748 0,9.9999997 z"
     inkscape:export-filename="/Users/michael.steffen/Projects/steffen-adventures/sprites/png/path4299.png"
     inkscape:export-xdpi="29.459999"
     inkscape:export-ydpi="29.459999" /><path
     d="m 15.021927,11.723999 c -0.126879,1.695259 -1.3,3 -3,3 l -10.0000008,0 c -1.69999993,0 -2.99999996,-1.3 -2.99999996,-3 l 0,-9.999999 c 0,-1.7 1.30000003,-3 2.99999996,-3 l 10.0000008,0 c 1.7,0 3,1.3 3,3 -0.02233,3.7207533 0.01817,6.5003749 0,9.999999 z"
     id="path4208"
     inkscape:connector-curvature="0"
     style="fill:#ffffff;fill-opacity:1;stroke:#ffffff;stroke-width:0.648;stroke-miterlimit:4;stroke-dasharray:none;stroke-opacity:1"
     sodipodi:nodetypes="csssssscc" /><g
     id="g3"
     transform="translate(-0.97565266,-1.276001)"
     style="fill:#ffa500;stroke:#ffffff;stroke-width:0;stroke-miterlimit:4;stroke-dasharray:none;stroke-opacity:1"><path
       d="M 15.9,6.7 C 16,6.5 16,6.2 15.9,6 L 15.2,5.3 C 15.1,5.2 15,5.2 14.8,5.2 c -0.1,0 -0.3,0 -0.4,0.1 L 9,10.6 9,11 l 0,1 1.6,0 5.3,-5.3 z"
       id="path5"
       inkscape:connector-curvature="0"
       style="stroke:#ffffff;stroke-width:0;stroke-miterlimit:4;stroke-dasharray:none;stroke-opacity:1" /><rect
       x="3"
       y="3"
       width="10"
       height="1"
       id="rect7"
       style="stroke:#ffffff;stroke-width:0;stroke-miterlimit:4;stroke-dasharray:none;stroke-opacity:1" /><polygon
       points="13,5.3 13,5 3,5 3,6 12.3,6 "
       id="polygon9"
       style="stroke:#ffffff;stroke-width:0;stroke-miterlimit:4;stroke-dasharray:none;stroke-opacity:1" /><rect
       x="3"
       y="11"
       width="5"
       height="1"
       id="rect11"
       style="stroke:#ffffff;stroke-width:0;stroke-miterlimit:4;stroke-dasharray:none;stroke-opacity:1" /><polygon
       points="10.3,8 11.3,7 3,7 3,8 "
       id="polygon13"
       style="stroke:#ffffff;stroke-width:0;stroke-miterlimit:4;stroke-dasharray:none;stroke-opacity:1" /><path
       d="m 15,9 0,4 c 0,1.1 -0.9,2 -2,2 L 3,15 C 1.9,15 1,14.1 1,13 L 1,3 C 1,1.9 1.9,1 3,1 l 10,0 c 1.1,0 2,0.9 2,2 l 0,1.2 c 0.3,0 0.6,0.2 0.9,0.4 L 16,4.7 16,3 C 16,1.3 14.7,0 13,0 L 3,0 C 1.3,0 0,1.3 0,3 l 0,10 c 0,1.7 1.3,3 3,3 l 10,0 c 1.7,0 3,-1.3 3,-3 l 0,-5 -1,1 z"
       id="path15"
       inkscape:connector-curvature="0"
       style="stroke:#ffffff;stroke-width:0;stroke-miterlimit:4;stroke-dasharray:none;stroke-opacity:1" /><polygon
       points="8.4,9.9 9.3,9 3,9 3,10 8.3,10 "
       id="polygon17"
       style="stroke:#ffffff;stroke-width:0;stroke-miterlimit:4;stroke-dasharray:none;stroke-opacity:1" /></g></svg>